#!OML:ASF F:\VICON\USERDATA\INSTALL\rory3\rory3.ASF
:FULLY-SPECIFIED
:DEGREES
131
root -5.78028 18.3723 3.81358 -0.15556 42.9035 3.19077
lowerback 3.87502 -2.81431 -7.63876
upperback 1.39713 -4.01692 -1.74523
thorax -0.325259 -2.01512 2.61513
lowerneck -3.29262 -11.0496 -10.3566
upperneck 10.1186 -15.4302 11.1866
head 5.25655 -7.4529 4.07204
rclavicle 1.76421e-014 8.74653e-015
rhumerus 18.4482 -40.8699 -32.195
rradius 103.526
rwrist -66.2494
rhand -1.65589 5.61507
rfingers 7.12502
rthumb 24.0034 -22.9041
lclavicle 1.76421e-014 8.74653e-015
lhumerus 35.8781 40.3413 71.3768
lradius 120.663
lwrist 88.0899
lhand 9.47344 24.8398
lfingers 7.12502
lthumb 34.6267 51.4822
rfemur -23.4623 22.7985 4.64646
rtibia 29.0997
rfoot -12.9914 -11.3159
rtoes -6.5594
lfemur 3.51626 -4.45701 -28.5358
ltibia 23.6166
lfoot -21.472 6.60279
ltoes 2.16783
132
root -5.7653 18.3741 3.8394 -0.477527 42.964 2.65773
lowerback 4.04002 -2.74833 -7.14468
upperback 1.37353 -3.92913 -1.69507
thorax -0.481785 -1.96525 2.40312
lowerneck -3.07638 -10.8083 -10.3263
upperneck 9.7345 -15.101 11.3258
head 5.07405 -7.29938 4.16324
rclavicle -4.24405e-014 -1.27222e-014
rhumerus 18.0705 -41.1391 -31.9528
rradius 102.982
rwrist -66.1308
rhand -2.36601 5.16388
rfingers 7.12502
rthumb 23.3223 -23.4434
lclavicle -4.24405e-014 -1.27222e-014
lhumerus 35.8076 40.2361 71.7314
lradius 121.181
lwrist 87.9392
lhand 8.81918 25.0573
lfingers 7.12502
lthumb 34.0055 51.8399
rfemur -23.5359 23.052 4.99823
rtibia 28.2855
rfoot -12.9445 -11.2058
rtoes -6.86131
lfemur 3.59733 -4.30845 -28.0513
ltibia 23.5437
lfoot -21.4778 6.54948
ltoes 1.81989
133
root -5.74789 18.3737 3.87486 -0.433523 43.0927 2.62205
lowerback 4.00248 -2.67018 -7.06575
upperback 1.41808 -3.81613 -1.76024
thorax -0.435037 -1.91064 2.28585
lowerneck -2.91349 -10.5547 -10.1243
upperneck 9.26446 -14.7504 11.4407
head 4.85732 -7.1302 4.22097
rclavicle -9.7653e-015 -7.95139e-015
rhumerus 17.5717 -41.4756 -31.675
rradius 102.254
rwrist -65.9206
rhand -2.94494 5.50019
rfingers 7.12502
rthumb 22.7668 -23.1764
lclavicle -9.7653e-015 -7.95139e-015
lhumerus 35.7613 39.9169 72.0845
lradius 121.469
lwrist 88.0348
lhand 7.92262 24.0106
lfingers 7.12502
lthumb 33.1535 50.9783
rfemur -23.5699 23.0788 4.98891
rtibia 27.5073
rfoot -12.849 -10.9818
rtoes -7.41943
lfemur 3.71244 -4.29707 -27.9618
ltibia 23.4583
lfoot -21.5057 6.42992
ltoes 1.81794
134
root -5.72677 18.3691 3.91128 -0.207055 43.2572 2.97374
lowerback 4.03064 -2.62904 -7.27658
upperback 1.46197 -3.76826 -1.87533
thorax -0.40333 -1.88792 2.28238
lowerneck -2.91675 -10.3536 -10.0982
upperneck 8.98424 -14.4668 11.5739
head 4.74896 -6.98972 4.28971
rclavicle 5.98093e-014 -3.26007e-014
rhumerus 17.1963 -41.6539 -31.4854
rradius 101.361
rwrist -65.612
rhand -3.90407 5.91404
rfingers 7.12502
rthumb 21.8461 -22.8728
lclavicle 5.98093e-014 -3.26007e-014
lhumerus 35.5263 39.5296 72.399
lradius 121.592
lwrist 88.182
lhand 7.05243 23.2741
lfingers 7.12502
lthumb 32.3256 50.4142
rfemur -23.5071 23.0564 4.69892
rtibia 26.8068
rfoot -12.7389 -10.7928
rtoes -7.98784
lfemur 3.94823 -4.32803 -28.2126
ltibia 23.3537
lfoot -21.5981 6.36081
ltoes 2.11205
135
root -5.7095 18.3674 3.94681 -0.0291918 43.4195 3.14038
lowerback 4.05044 -2.59974 -7.42104
upperback 1.47916 -3.7348 -1.89827
thorax -0.391583 -1.87191 2.33787
lowerneck -3.22963 -10.2982 -10.119
upperneck 8.97849 -14.3575 11.5059
head 4.78396 -6.92895 4.26546
rclavicle 2.16178e-014 3.18055e-015
rhumerus 16.9908 -41.8014 -31.4064
rradius 100.38
rwrist -65.2708
rhand -5.16356 5.41067
rfingers 7.12502
rthumb 20.6363 -23.5123
lclavicle 2.16178e-014 3.18055e-015
lhumerus 35.1833 39.0699 72.6838
lradius 121.531
lwrist 88.4736
lhand 6.45191 23.0632
lfingers 7.12502
lthumb 31.7538 50.3182
rfemur -23.6078 23.2615 4.48347
rtibia 26.2392
rfoot -12.6753 -10.8961
rtoes -8.90487
lfemur 4.0911 -4.26385 -28.2706
ltibia 23.1661
lfoot -21.6335 6.22763
ltoes 2.22542
136
root -5.6951 18.3668 3.98367 0.022773 43.6264 3.0766
lowerback 4.02224 -2.57308 -7.37946
upperback 1.49661 -3.69392 -1.89865
thorax -0.364346 -1.85263 2.31132
lowerneck -3.58579 -10.2945 -10.1174
upperneck 9.06996 -14.3163 11.3607
head 4.85612 -6.90115 4.20399
rclavicle -2.39784e-014 1.51076e-014
rhumerus 16.7453 -41.965 -31.3393
rradius 99.2814
rwrist -65.1604
rhand -6.51949 4.51274
rfingers 7.12502
rthumb 19.3329 -24.5462
lclavicle -2.39784e-014 1.51076e-014
lhumerus 34.8005 38.4971 72.8507
lradius 121.271
lwrist 88.9616
lhand 5.45594 22.8903
lfingers 7.12502
lthumb 30.8048 50.3288
rfemur -23.747 23.4487 4.46877
rtibia 25.7762
rfoot -12.533 -11.0543
rtoes -10.4433
lfemur 4.21786 -4.25114 -28.1232
ltibia 22.9436
lfoot -21.5902 6.05361
ltoes 2.38479
137
root -5.67569 18.3629 4.02047 0.160877 43.8426 3.30755
lowerback 4.0623 -2.53356 -7.47125
upperback 1.5263 -3.64599 -1.9945
thorax -0.36075 -1.82868 2.26313
lowerneck -3.74785 -10.2569 -10.2471
upperneck 9.0789 -14.2525 11.4327
head 4.89379 -6.86505 4.24263
rclavicle -4.26393e-014 2.70347e-014
rhumerus 16.3882 -42.0375 -31.1733
rradius 97.9724
rwrist -65.2582
rhand -7.66134 4.62325
rfingers 7.12502
rthumb 18.2347 -24.5421
lclavicle -4.26393e-014 2.70347e-014
lhumerus 34.3243 37.8469 72.9924
lradius 120.852
lwrist 89.5105
lhand 4.31864 22.5436
lfingers 7.12502
lthumb 29.7199 50.1812
rfemur -23.6876 23.2901 4.33302
rtibia 25.3106
rfoot -12.4178 -10.8131
rtoes -11.3051
lfemur 4.4461 -4.33156 -28.2661
ltibia 22.8394
lfoot -21.6034 6.03423
ltoes 2.05028
138
root -5.65642 18.3582 4.05978 0.373653 44.0304 3.64872
lowerback 4.14512 -2.49865 -7.69571
upperback 1.48108 -3.61821 -2.09733
thorax -0.448736 -1.81026 2.28595
lowerneck -3.86175 -10.1988 -10.3937
upperneck 9.16264 -14.1709 11.5152
head 4.94608 -6.82069 4.29042
rclavicle -3.61043e-014 2.70347e-014
rhumerus 16.0429 -41.9285 -31.0342
rradius 96.6017
rwrist -65.1633
rhand -9.04071 4.63459
rfingers 7.12502
rthumb 16.9073 -24.6495
lclavicle -3.61043e-014 2.70347e-014
lhumerus 33.5586 37.059 72.9433
lradius 120.316
lwrist 90.0478
lhand 3.23971 22.2248
lfingers 7.12502
lthumb 28.6896 50.0415
rfemur -23.6258 23.1298 4.12258
rtibia 24.8415
rfoot -12.3913 -10.6568
rtoes -11.1212
lfemur 4.61985 -4.30508 -28.4701
ltibia 22.8164
lfoot -21.6523 5.95217
ltoes 1.77706
139
root -5.64214 18.3558 4.10023 0.380512 44.2176 3.42406
lowerback 4.01704 -2.4894 -7.55493
upperback 1.41562 -3.59284 -2.08065
thorax -0.455376 -1.79605 2.22035
lowerneck -4.13643 -10.1753 -10.4151
upperneck 9.36929 -14.1225 11.4242
head 5.04487 -6.78881 4.25282
rclavicle -1.04536e-013 7.15625e-015
rhumerus 15.9149 -41.8406 -31.0692
rradius 95.0347
rwrist -64.975
rhand -10.4127 3.94018
rfingers 7.12502
rthumb 15.5862 -25.4518
lclavicle -1.04536e-013 7.15625e-015
lhumerus 32.8258 36.1175 72.7736
lradius 119.571
lwrist 90.521
lhand 2.03156 22.0273
lfingers 7.12502
lthumb 27.5348 50.0337
rfemur -23.7815 23.2207 4.25251
rtibia 24.4186
rfoot -12.4704 -10.8058
rtoes -10.7453
lfemur 4.57801 -4.35377 -28.1991
ltibia 22.7873
lfoot -21.678 5.84094
ltoes 1.82276
140
root -5.62633 18.3546 4.1432 0.298402 44.5128 3.10639
lowerback 3.85685 -2.4857 -7.28069
upperback 1.40292 -3.56406 -2.08756
thorax -0.399489 -1.78295 2.05358
lowerneck -4.46252 -10.1809 -10.3323
upperneck 9.52786 -14.1035 11.2543
head 5.12776 -6.77079 4.17058
rclavicle -9.4373e-014 2.94201e-014
rhumerus 15.7574 -41.8142 -31.0791
rradius 93.2751
rwrist -64.9949
rhand -11.6291 3.6938
rfingers 7.12502
rthumb 14.4144 -25.7857
lclavicle -9.4373e-014 2.94201e-014
lhumerus 32.2413 34.9994 72.5905
lradius 118.59
lwrist 90.9689
lhand 0.807309 21.7733
lfingers 7.12502
lthumb 26.3634 49.9607
rfemur -23.8544 23.4623 4.44125
rtibia 24.0335
rfoot -12.6788 -11.1359
rtoes -10.325
lfemur 4.57815 -4.38101 -27.8234
ltibia 22.7686
lfoot -21.7155 5.63063
ltoes 1.63403
141
root -5.60755 18.3529 4.18733 0.272008 44.8517 3.0789
lowerback 3.9003 -2.48723 -7.20922
upperback 1.40956 -3.56702 -2.13899
thorax -0.424493 -1.78312 1.96352
lowerneck -4.75454 -10.1801 -10.2344
upperneck 9.55108 -14.0653 11.061
head 5.15854 -6.7479 4.0848
rclavicle -1.65985e-014 1.11319e-014
rhumerus 15.7748 -41.7412 -31.1916
rradius 91.4391
rwrist -65.0129
rhand -12.9957 3.56397
rfingers 7.12502
rthumb 13.0974 -26.0048
lclavicle -1.65985e-014 1.11319e-014
lhumerus 31.6811 33.7868 72.5303
lradius 117.493
lwrist 91.2906
lhand -0.0228349 21.7113
lfingers 7.12502
lthumb 25.5685 50.0152
rfemur -23.7134 23.7139 4.45615
rtibia 23.6396
rfoot -12.9593 -11.6239
rtoes -10.6124
lfemur 4.73171 -4.31942 -27.6765
ltibia 22.7964
lfoot -21.7564 5.44397
ltoes 0.882895
142
root -5.58934 18.3518 4.23415 0.359769 45.1721 3.14647
lowerback 3.91167 -2.53956 -7.21928
upperback 1.37102 -3.64026 -2.19724
thorax -0.467596 -1.81697 1.91316
lowerneck -5.0874 -10.1827 -10.1956
upperneck 9.65904 -14.0322 10.8778
head 5.22788 -6.72661 4.00707
rclavicle -6.86304e-014 -1.19271e-014
rhumerus 16.1045 -41.5735 -31.592
rradius 89.5245
rwrist -64.9446
rhand -14.2516 2.95327
rfingers 7.12502
rthumb 11.8865 -26.6893
lclavicle -6.86304e-014 -1.19271e-014
lhumerus 31.088 32.5775 72.4552
lradius 116.246
lwrist 91.4621
lhand -0.602831 21.8217
lfingers 7.12502
lthumb 25.0128 50.2041
rfemur -23.6454 23.9221 4.40975
rtibia 23.3453
rfoot -13.0214 -12.2537
rtoes -11.3484
lfemur 4.84672 -4.23219 -27.5892
ltibia 22.7686
lfoot -21.7311 5.26116
ltoes 0.0361783
143
root -5.57337 18.3502 4.28888 0.38628 45.4731 3.11607
lowerback 3.85878 -2.64105 -7.23124
upperback 1.31065 -3.77451 -2.21068
thorax -0.489165 -1.88194 1.90888
lowerneck -5.4407 -10.1265 -10.2292
upperneck 9.86397 -13.9152 10.6728
head 5.32517 -6.66636 3.93973
rclavicle 3.83654e-014 -9.54166e-015
rhumerus 16.6267 -41.2108 -32.1127
rradius 87.4672
rwrist -64.9128
rhand -15.7125 2.37041
rfingers 7.12502
rthumb 10.4775 -27.3485
lclavicle 3.83654e-014 -9.54166e-015
lhumerus 30.4645 31.4475 72.3104
lradius 114.817
lwrist 91.6022
lhand -1.41039 21.5128
lfingers 7.12502
lthumb 24.2388 50.0008
rfemur -23.6053 24.1825 4.47204
rtibia 23.1735
rfoot -13.0647 -12.8513
rtoes -11.4029
lfemur 4.98874 -4.3639 -27.4622
ltibia 22.6874
lfoot -21.6798 5.23923
ltoes -0.763678
